<?xml version="1.0" encoding="UTF-8"?>
<svg version="1.1" xmlns="http://www.w3.org/2000/svg" width="500" height="500">
<path d="M0 0 C1.34945187 -0.00374311 2.69890157 -0.00834725 4.04834789 -0.01373065 C7.73267538 -0.02589485 11.41691162 -0.025708 15.10125458 -0.02334189 C19.08441365 -0.02293204 23.06754412 -0.03398898 27.0506897 -0.04345703 C34.84624459 -0.06003268 42.64176922 -0.06556505 50.43734027 -0.06668179 C56.77897031 -0.06763405 63.12059043 -0.07175325 69.46221733 -0.07808304 C87.46773394 -0.09568737 105.47322675 -0.10492337 123.47875202 -0.10342209 C124.44836624 -0.10334218 125.41798046 -0.10326227 126.41697693 -0.10317993 C127.38778428 -0.10309817 128.35859163 -0.10301641 129.35881739 -0.10293217 C145.07979713 -0.10211987 160.80068092 -0.1212455 176.52163292 -0.14945666 C192.68912582 -0.17823862 208.85657203 -0.19199399 225.02409118 -0.19026911 C234.0906622 -0.18960696 243.15713266 -0.19502198 252.2236805 -0.21662521 C259.94549878 -0.23490723 267.66717097 -0.23912719 275.38900162 -0.22560637 C279.32232201 -0.21911145 283.2553627 -0.2188321 287.18865585 -0.23631287 C319.880273 -0.37240808 348.57321999 5.48454629 372.56126404 29.20492554 C391.21078003 48.47813027 400.79376298 73.22597502 400.72712708 99.807724 C400.73087018 101.15717587 400.73547432 102.50662557 400.74085772 103.85607189 C400.75302193 107.54039938 400.75283507 111.22463562 400.75046897 114.90897858 C400.75005912 118.89213765 400.76111606 122.87526812 400.77058411 126.8584137 C400.78715976 134.65396859 400.79269213 142.44949322 400.79380886 150.24506427 C400.79476113 156.58669431 400.79888032 162.92831443 400.80521011 169.26994133 C400.82281445 187.27545793 400.83205044 205.28095075 400.83054917 223.28647602 C400.83046925 224.25609024 400.83038934 225.22570446 400.83030701 226.22470093 C400.83022525 227.19550828 400.83014348 228.16631563 400.83005925 229.16654139 C400.82924695 244.88752113 400.84837257 260.60840492 400.87658374 276.32935692 C400.9053657 292.49684982 400.91912106 308.66429603 400.91739619 324.83181518 C400.91673404 333.89838619 400.92214906 342.96485666 400.94375229 352.0314045 C400.9620343 359.75322278 400.96625427 367.47489497 400.95273344 375.19672561 C400.94623852 379.13004601 400.94595917 383.0630867 400.96343994 386.99637985 C401.09953516 419.68799699 395.24258078 448.38094399 371.52220154 472.36898804 C352.24899681 491.01850403 327.50115206 500.60148698 300.91940308 500.53485107 C299.56995121 500.53859418 298.22050151 500.54319832 296.87105519 500.54858172 C293.18672769 500.56074592 289.50249145 500.56055907 285.81814849 500.55819297 C281.83498942 500.55778312 277.85185895 500.56884005 273.86871338 500.57830811 C266.07315849 500.59488376 258.27763385 500.60041613 250.48206281 500.60153286 C244.14043276 500.60248513 237.79881265 500.60660432 231.45718575 500.61293411 C213.45166914 500.63053845 195.44617632 500.63977444 177.44065105 500.63827316 C176.47103683 500.63819325 175.50142261 500.63811334 174.50242615 500.63803101 C173.53161879 500.63794924 172.56081144 500.63786748 171.56058569 500.63778324 C155.83960595 500.63697095 140.11872216 500.65609657 124.39777016 500.68430774 C108.23027725 500.7130897 92.06283105 500.72684506 75.89531189 500.72512019 C66.82874088 500.72445804 57.76227041 500.72987306 48.69572258 500.75147629 C40.97390429 500.7697583 33.25223211 500.77397827 25.53040146 500.76045744 C21.59708106 500.75396252 17.66404038 500.75368317 13.73074722 500.77116394 C-18.96086992 500.90725916 -47.65381692 495.05030478 -71.64186096 471.32992554 C-90.29137696 452.05672081 -99.8743599 427.30887606 -99.807724 400.72712708 C-99.81146711 399.37767521 -99.81607125 398.02822551 -99.82145464 396.67877918 C-99.83361885 392.99445169 -99.83343199 389.31021545 -99.83106589 385.62587249 C-99.83065604 381.64271342 -99.84171298 377.65958295 -99.85118103 373.67643738 C-99.86775668 365.88088249 -99.87328905 358.08535785 -99.87440579 350.28978681 C-99.87535805 343.94815676 -99.87947724 337.60653665 -99.88580704 331.26490974 C-99.90341137 313.25939314 -99.91264737 295.25390032 -99.91114609 277.24837505 C-99.91106618 276.27876083 -99.91098626 275.30914661 -99.91090393 274.31015015 C-99.91082217 273.33934279 -99.91074041 272.36853544 -99.91065617 271.36830968 C-99.90984387 255.64732995 -99.92896949 239.92644616 -99.95718066 224.20549416 C-99.98596262 208.03800125 -99.99971799 191.87055505 -99.99799311 175.70303589 C-99.99733096 166.63646488 -100.00274598 157.56999441 -100.02434921 148.50344658 C-100.04263123 140.78162829 -100.04685119 133.05995611 -100.03333037 125.33812546 C-100.02683545 121.40480506 -100.0265561 117.47176438 -100.04403687 113.53847122 C-100.18013208 80.84685408 -94.32317771 52.15390708 -70.60279846 28.16586304 C-51.32959373 9.51634704 -26.58174898 -0.0666359 0 0 Z " fill="#8C4CFF" transform="translate(99.54029846191406,-0.267425537109375)"/>
<path d="M0 0 C4.86832568 -0.15668175 8.39849557 -0.20803374 12.8984375 1.765625 C18.23606782 7.10325532 19.59683111 10.56221418 19.8359375 18.078125 C18.69958786 56.52462115 -6.42465538 92.37205172 -33.33544922 117.78125 C-43.54070843 126.99604529 -57.25944258 138.11862512 -71.7265625 138.453125 C-75.6640625 138.203125 -75.6640625 138.203125 -77.6015625 136.828125 C-80.0406338 133.09778065 -80.36301811 130.67733129 -79.6640625 126.203125 C-77.08131114 122.89252874 -73.96452529 120.19534486 -70.8515625 117.390625 C-52.57988098 100.10375672 -42.49622244 80.19661831 -41.6640625 55.203125 C-42.75332031 55.65300781 -43.84257812 56.10289062 -44.96484375 56.56640625 C-45.88390503 56.94599487 -45.88390503 56.94599487 -46.8215332 57.33325195 C-48.96671587 58.2860441 -48.96671587 58.2860441 -51.8515625 60.390625 C-54.6640625 62.203125 -54.6640625 62.203125 -58.6640625 62.203125 C-58.6640625 62.863125 -58.6640625 63.523125 -58.6640625 64.203125 C-61.82929075 65.8725336 -64.99626504 67.53859687 -68.1640625 69.203125 C-69.1135376 69.70207275 -70.0630127 70.20102051 -71.04125977 70.71508789 C-77.48666117 74.091199 -83.96130514 77.39641055 -90.51171875 80.56445312 C-98.72920356 84.53509882 -98.72920356 84.53509882 -104.6640625 91.203125 C-105.1093901 94.29516824 -105.1093901 94.29516824 -105.02734375 97.734375 C-105.02669922 99.02085937 -105.02605469 100.30734375 -105.02539062 101.6328125 C-105.01709229 102.30280273 -105.00879395 102.97279297 -105.00024414 103.66308594 C-104.97696456 105.66849004 -104.98140295 107.67415433 -104.98632812 109.6796875 C-104.94726332 116.8249955 -104.49424844 123.6220561 -103.13330078 130.64086914 C-102.4230258 134.51929576 -101.90353046 138.30439759 -102.6640625 142.203125 C-106.49128506 147.70475743 -112.00840731 149.41475623 -118.30859375 150.7734375 C-122.69255093 151.33482899 -126.99903837 151.35281753 -131.4140625 151.328125 C-132.30931641 151.32329102 -133.20457031 151.31845703 -134.12695312 151.31347656 C-144.53758846 151.2185583 -154.01983091 150.62848443 -163.6640625 146.203125 C-166.13413029 142.49802332 -165.9320324 140.55672893 -165.9140625 136.140625 C-165.91921875 134.89152344 -165.924375 133.64242187 -165.9296875 132.35546875 C-165.82428293 129.29651731 -165.33910092 126.49192689 -164.66796875 123.5078125 C-163.37817789 117.46819648 -163.33329416 111.54705705 -163.3515625 105.390625 C-163.33544922 104.28525391 -163.31933594 103.17988281 -163.30273438 102.04101562 C-163.30208984 100.97431641 -163.30144531 99.90761719 -163.30078125 98.80859375 C-163.29780029 97.85106201 -163.29481934 96.89353027 -163.29174805 95.90698242 C-163.72884004 92.73269139 -164.93469949 90.86590391 -166.6640625 88.203125 C-166.6640625 87.543125 -166.6640625 86.883125 -166.6640625 86.203125 C-167.29699219 85.96851563 -167.92992187 85.73390625 -168.58203125 85.4921875 C-172.81663147 83.72106193 -176.88090746 81.64696417 -180.9765625 79.578125 C-181.81251953 79.15789062 -182.64847656 78.73765625 -183.50976562 78.3046875 C-185.5621195 77.27264669 -187.61351229 76.23874356 -189.6640625 75.203125 C-188.15433695 72.05426886 -186.87764518 69.44183506 -184.5390625 66.828125 C-181.9822137 63.24853668 -182.02671908 60.55500391 -181.6640625 56.203125 C-181.1690625 55.708125 -181.1690625 55.708125 -180.6640625 55.203125 C-173.65114233 55.26423977 -166.76397398 56.94522647 -159.9609375 58.484375 C-136.94193324 63.50273612 -103.00436181 63.68112156 -82.41113281 51.32299805 C-79.03178748 49.10723821 -75.83427605 46.70587712 -72.6640625 44.203125 C-71.705 43.48511719 -70.7459375 42.76710938 -69.7578125 42.02734375 C-61.36738436 35.56619615 -52.77715946 28.51355602 -46.4765625 19.953125 C-39.54916695 11.04853531 -30.11651703 3.25205754 -18.6640625 1.203125 C-12.45659961 0.59218394 -6.22623354 0.34516433 0 0 Z " fill="#FEFDFF" transform="translate(384.6640625,270.796875)"/>
<path d="M0 0 C3.23045953 1.7116263 6.33792595 3.47595942 9 6 C9 6.99 9 7.98 9 9 C9.721875 9.22042969 10.44375 9.44085938 11.1875 9.66796875 C14.6836302 11.32377486 16.47365489 13.39536088 19 16.3125 C22.76004357 20.61892491 26.55104875 24.80438853 30.8125 28.625 C32 30 32 30 32 33 C32.65742188 33.20882812 33.31484375 33.41765625 33.9921875 33.6328125 C38.13021754 35.51373525 41.51683969 38.1343755 45.125 40.875 C45.84042969 41.40480469 46.55585938 41.93460937 47.29296875 42.48046875 C54.07664441 47.59041509 54.07664441 47.59041509 56 51 C56.5775294 56.1977646 55.88196356 59.62736563 53 64 C50.09819545 66.49877614 48.65258787 67.01279584 44.8125 66.9375 C35.65883789 64.68659948 29.25953166 61.03726137 21.95703125 55.0234375 C18.56999943 52.70575919 15.96463629 51.91833418 12 51 C13.91690929 76.1511719 26.79606057 100.4169456 46 117 C46.59167969 117.38671875 47.18335938 117.7734375 47.79296875 118.171875 C49.5 119.3125 49.5 119.3125 52 122 C52.30876047 125.47355534 51.94936328 128.64756092 51 132 C49 134 49 134 45.0625 134.375 C34.79540341 134.00194594 27.18896618 129.08930545 18.875 123.5 C18.0205127 122.92999268 17.16602539 122.35998535 16.28564453 121.77270508 C15.48755371 121.2186499 14.68946289 120.66459473 13.8671875 120.09375 C13.14644043 119.59552734 12.42569336 119.09730469 11.68310547 118.58398438 C9.74889893 116.76368672 9.37067852 115.59264752 9 113 C7.89591797 112.85884766 7.89591797 112.85884766 6.76953125 112.71484375 C3.59191836 111.89467004 2.10338515 110.75090067 -0.3125 108.5625 C-1.00988281 107.94503906 -1.70726562 107.32757813 -2.42578125 106.69140625 C-4 105 -4 105 -4 103 C-4.66 103 -5.32 103 -6 103 C-6 102.34 -6 101.68 -6 101 C-6.56332031 100.78859375 -7.12664062 100.5771875 -7.70703125 100.359375 C-10.76771553 98.54486371 -12.5990663 96.05983272 -14.6875 93.25 C-15.34105469 92.37891602 -15.34105469 92.37891602 -16.0078125 91.49023438 C-33.50849006 67.87700132 -49.77841969 37.27394958 -47 7 C-45.89749546 3.25897731 -44.57080168 1.20839707 -41.5625 -1.25 C-40.96566406 -1.75015625 -40.36882812 -2.2503125 -39.75390625 -2.765625 C-30.19643579 -9.49204074 -9.99721619 -3.79984688 0 0 Z " fill="#FEFDFF" transform="translate(144,275)"/>
<path d="M0 0 C8.94871035 1.93236933 17.34431642 6.32504618 25.6159668 10.14453125 C37.96062155 15.81524519 48.56095021 18.93579381 62.19165039 19.27929688 C73.04526346 19.59748467 79.79737616 22.65695924 87.6484375 30.203125 C92.73651018 35.7700751 93.34109504 42.27362345 93.26611328 49.51928711 C93.26640533 50.27133423 93.26669739 51.02338135 93.26699829 51.79821777 C93.26561568 54.26013112 93.25010545 56.72173391 93.234375 59.18359375 C93.23064106 60.89994644 93.22779589 62.61630127 93.22579956 64.33265686 C93.21819309 68.83222421 93.19857048 73.33166078 93.1763916 77.83117676 C93.1558686 82.42975089 93.14678408 87.02834632 93.13671875 91.62695312 C93.11532159 100.63677595 93.08122198 109.64650207 93.0390625 118.65625 C91.7190625 118.65625 90.3990625 118.65625 89.0390625 118.65625 C88.81992187 118.08777344 88.60078125 117.51929688 88.375 116.93359375 C83.87399098 105.97381974 77.76170015 101.10679023 67.1015625 96.34375 C58.70965954 94.45985342 51.58735326 95.52748693 44.0390625 99.65625 C40.59943236 102.07433585 37.78924566 104.60043666 35.3515625 108.03125 C34.9184375 108.5675 34.4853125 109.10375 34.0390625 109.65625 C32.7190625 109.65625 31.3990625 109.65625 30.0390625 109.65625 C29.17365125 106.65570685 28.90562383 103.96550843 28.88134766 100.84692383 C28.87108551 99.89525833 28.86082336 98.94359283 28.85025024 97.96308899 C28.84294891 96.94015244 28.83564758 95.91721588 28.828125 94.86328125 C28.80004755 92.68423739 28.77138303 90.50520104 28.7421875 88.32617188 C28.70101736 84.90096315 28.6641176 81.47589311 28.63769531 78.05053711 C28.60994385 74.73782622 28.56406443 71.42574589 28.515625 68.11328125 C28.51237213 67.10046585 28.50911926 66.08765045 28.50576782 65.04414368 C28.36974608 57.10092866 27.28272927 49.89871044 22.0390625 43.65625 C22.0390625 42.99625 22.0390625 42.33625 22.0390625 41.65625 C21.15347656 41.25792969 21.15347656 41.25792969 20.25 40.8515625 C17.98190198 39.62534696 16.50554152 38.32273412 14.6640625 36.53125 C11.08334752 33.30592433 7.24107176 30.91304083 3.0390625 28.59375 C-10.21333663 21.2776513 -10.21333663 21.2776513 -13.9609375 15.65625 C-14.4385108 10.80092144 -14.47435144 8.61226216 -12.1484375 4.28125 C-8.17831915 -0.48289202 -5.7853349 -0.73358713 0 0 Z " fill="#FEFEFF" transform="translate(309.9609375,114.34375)"/>
<path d="M0 0 C2.4445128 2.06255768 3.84738421 3.75413395 4.37109375 6.95703125 C4.39300781 7.79621094 4.41492188 8.63539062 4.4375 9.5 C4.49744141 10.74716797 4.49744141 10.74716797 4.55859375 12.01953125 C3.6040033 16.57886883 0.82862337 19.40486934 -2.87573242 22.00317383 C-4.99278027 23.29074836 -7.13819792 24.49931262 -9.3125 25.6875 C-14.0314589 28.34862743 -18.60967668 30.94807675 -22.875 34.3125 C-26 36.6875 -26 36.6875 -29 36.6875 C-29.0825 37.244375 -29.165 37.80125 -29.25 38.375 C-30 40.6875 -30 40.6875 -31.875 42.875 C-37.35869839 50.13283611 -37.46122681 58.36656177 -37.51171875 67.16015625 C-37.53864555 68.90564003 -37.53864555 68.90564003 -37.56611633 70.68638611 C-37.61995617 74.37422142 -37.65403119 78.06192924 -37.6875 81.75 C-37.72069622 84.26238743 -37.75518799 86.77475809 -37.79101562 89.28710938 C-37.87566752 95.42045853 -37.94412814 101.55382474 -38 107.6875 C-41.97095229 107.0053932 -43.81916848 106.29960954 -46.6875 103.4375 C-54.41285007 96.46022852 -61.16231488 93.87722404 -71.65234375 94.25390625 C-76.32212935 94.85874429 -79.949058 96.36541191 -84 98.6875 C-84.71800781 99.01878906 -85.43601562 99.35007812 -86.17578125 99.69140625 C-88.50553551 100.96354187 -88.86751637 102.34703384 -90 104.6875 C-91.485 105.1825 -91.485 105.1825 -93 105.6875 C-94.46840117 108.23701047 -94.46840117 108.23701047 -95.6875 111.25 C-96.34298828 112.76787109 -96.34298828 112.76787109 -97.01171875 114.31640625 C-97.33785156 115.09886719 -97.66398437 115.88132812 -98 116.6875 C-99.32 116.6875 -100.64 116.6875 -102 116.6875 C-102.06966027 106.78615808 -102.12289249 96.88487493 -102.15543652 86.9833374 C-102.17105987 82.38512485 -102.19223702 77.78708057 -102.22631836 73.18896484 C-102.25903098 68.74747067 -102.27687804 64.30613787 -102.28463173 59.86453247 C-102.29015394 58.174138 -102.30093734 56.48375187 -102.31719017 54.79342651 C-102.33912318 52.41678111 -102.34196039 50.04079361 -102.34057617 47.6640625 C-102.351362 46.97281784 -102.36214783 46.28157318 -102.3732605 45.56938171 C-102.33436431 39.35496759 -100.794548 34.09464471 -97.0546875 29.078125 C-88.28618377 20.46676291 -81.79880889 18.46678781 -69.79833984 18.04003906 C-56.24314881 17.51857773 -44.15575197 12.54490093 -31.96875 6.91796875 C-30.87651123 6.41974609 -29.78427246 5.92152344 -28.65893555 5.40820312 C-26.46768687 4.40426049 -24.28383035 3.38398524 -22.10864258 2.34570312 C-14.73600511 -1.02767798 -7.77645041 -3.40219705 0 0 Z " fill="#FDFDFF" transform="translate(199,116.3125)"/>
<path d="M0 0 C6.7677899 3.90661043 11.83592727 9.48783611 14.19140625 17.0078125 C16.0474965 25.53579475 13.59689804 33.78498146 9.5 41.3125 C6.53723867 45.78835351 2.40357092 47.81255988 -2.375 50 C-3.365 50.495 -3.365 50.495 -4.375 51 C-13.77363424 51.7685799 -22.60555962 52.1267587 -30.375 46 C-32.79729748 43.5312192 -34.62926585 40.9786949 -36.375 38 C-36.99375 36.948125 -37.6125 35.89625 -38.25 34.8125 C-40.73974517 26.37503025 -40.30592748 17.86185496 -36.375 10 C-29.00540129 -1.73676831 -12.33542859 -5.60186894 0 0 Z " fill="#FDFCFF" transform="translate(380.375,80)"/>
<path d="M0 0 C6.2042098 3.35169955 11.92757676 8.00663214 15 14.4375 C16.34939162 24.96518595 14.58858181 34.08847065 9.375 43.3125 C2.94388611 49.06665453 -5.16713205 51.87279412 -13.76171875 51.7109375 C-21.90269849 50.71640245 -28.57922045 46.43163123 -34 40.4375 C-38.36293832 33.40050272 -38.86964669 25.54746097 -38 17.4375 C-35.5038938 9.20268237 -30.28327667 3.92072223 -23.234375 -0.7265625 C-16.64175966 -3.19303048 -6.49600716 -2.65073497 0 0 Z " fill="#FEFDFF" transform="translate(144,80.5625)"/>
<path d="M0 0 C5.45445305 5.58130079 6.95929951 10.14931631 7.3125 18 C7.07601097 25.65156439 5.3328472 31.6128543 0.6875 37.75 C-6.72690445 44.33217538 -13.78598898 45.20595776 -23.3515625 45.0234375 C-31.14582037 44.48537236 -35.38559152 41.12329069 -40.76953125 35.7265625 C-46.3191764 28.61739682 -46.24905911 21.43118253 -45.3125 12.75 C-43.19220518 5.32896813 -38.69659088 -0.01451998 -32.3125 -4.25 C-21.44438423 -9.15130711 -9.32797064 -6.84515258 0 0 Z " fill="#FDFDFF" transform="translate(269.3125,278.25)"/>
<path d="M0 0 C6.98973333 4.17009568 11.67491071 9.15060389 13.83984375 17.09765625 C15.29879255 24.75366375 12.37966422 31.39062799 8.83984375 38.09765625 C5.22412481 42.91861483 0.5541493 45.4078934 -5.16015625 47.09765625 C-12.7487726 48.16983124 -19.92870653 46.87102205 -26.359375 42.65625 C-31.98427161 38.17504771 -35.49090812 33.05695651 -36.46484375 25.83984375 C-36.67801521 19.04204262 -35.80149461 12.5362161 -31.97265625 6.84765625 C-23.18018977 -1.74942208 -11.90228483 -5.41012947 0 0 Z " fill="#FDFCFF" transform="translate(144.16015625,221.90234375)"/>
<path d="M0 0 C4.59006905 3.11138909 8.81398763 7.95500325 10.74609375 13.18359375 C10.9654718 15.8161303 11.07954416 18.30386157 11.05859375 20.93359375 C11.05122192 22.00830933 11.05122192 22.00830933 11.04370117 23.10473633 C10.89062655 30.00251409 9.91182339 34.4609622 5.55859375 39.93359375 C-1.29015321 45.41259132 -8.48310956 48.103986 -17.25390625 47.18359375 C-25.37797612 45.32809631 -30.67385516 41.08802077 -35.25390625 34.18359375 C-36.50341804 31.5023497 -37.00181315 29.12102638 -37.25390625 26.18359375 C-37.33382813 25.38953125 -37.41375 24.59546875 -37.49609375 23.77734375 C-37.81631822 17.67424215 -36.74218124 12.30517476 -33.25390625 7.18359375 C-32.26390625 6.85359375 -31.27390625 6.52359375 -30.25390625 6.18359375 C-30.25390625 5.19359375 -30.25390625 4.20359375 -30.25390625 3.18359375 C-21.28855914 -2.60050116 -10.05473756 -4.51922613 0 0 Z " fill="#FEFDFF" transform="translate(380.25390625,221.81640625)"/>
<path d="M0 0 C-1.3125 1.5 -1.3125 1.5 -3 3 C-3.99 3 -4.98 3 -6 3 C-6 2.34 -6 1.68 -6 1 C-6.66 0.67 -7.32 0.34 -8 0 C-4.71303767 -0.79953138 -3.28976808 -1.09658936 0 0 Z " fill="#9C66FF" transform="translate(144,131)"/>
</svg>
